<svg
  xmlns="http://www.w3.org/2000/svg"
  viewBox="0 0 24 24"
  aria-hidden="true"
>
  <path d="M20.447 20.452h-3.554v-5.569c0-1.328-.027-3.037-1.852-3.037-1.853 0-2.136 1.445-2.136 2.939v5.667H9.351V9h3.414v1.561h.047c.476-.9 1.637-1.85 3.368-1.85 3.601 0 4.266 2.37 4.266 5.455v6.286zM5.337 7.433a2.062 2.062 0 1 1 0-4.124 2.062 2.062 0 0 1 0 4.124zM6.114 20.452H4.56V9h1.554v11.452zM22.225 0H1.771C.792 0 0 .774 0 1.727v20.545C0 23.226.792 24 1.771 24h20.451C23.2 24 24 23.226 24 22.273V1.727C24 .774 23.2 0 22.222 0z"/>
</svg>
